<svg width="640" height="480" xmlns="http://www.w3.org/2000/svg" xmlns:svg="http://www.w3.org/2000/svg">
 <g>
  <title>Layer 1</title>
  <g stroke="null" id="svg_1">
   <path stroke="null" d="m280.73652,184.70679c18.93856,36.58064 34.59929,66.45679 34.96349,66.45679c0.3642,0 16.02493,-29.87615 34.96349,-66.45679l34.23509,-66.45679l-12.62571,0l-12.62571,0l-21.73078,40.57981c-11.8973,22.3483 -21.85218,40.57981 -22.21639,40.57981c-0.3642,0 -10.19769,-18.23151 -21.85218,-40.57981l-21.24518,-40.57981l-12.98991,0l-13.11131,0l34.23509,66.45679z" fill="#7f0000" id="svg_3"/>
   <g stroke="null" id="svg_30">
    <path stroke="null" d="m211.90214,273.15901c-1.33541,0.23525 -3.64203,0.70574 -5.09884,1.0586c-4.12763,0.82336 -11.4117,7.52785 -13.83972,12.82087c-4.97744,10.46841 -1.33541,22.93641 8.37667,28.93517c6.55565,3.99917 11.04749,5.05777 17.96735,3.99917c7.76966,-1.0586 6.67706,-3.05819 -1.21401,-2.23483c-8.61947,0.94098 -16.02493,-2.23483 -20.88097,-9.17457c-2.91362,-4.11679 -3.52063,-5.99875 -3.52063,-12.11513c0,-6.11638 0.4856,-7.88072 3.52063,-11.64464c5.09884,-6.58687 9.83348,-8.93932 17.84595,-8.93932c5.34164,0 7.76966,0.70574 12.1401,3.41106c8.13387,4.94015 9.59068,8.8217 9.59068,25.87698c0,8.70408 0.4856,14.23234 1.21401,14.23234c0.72841,0 1.21401,-5.76351 1.21401,-15.0557c0,-13.29136 -0.3642,-15.40857 -2.79222,-19.64298c-4.37044,-7.41023 -16.51054,-13.17374 -24.523,-11.52702z" fill="#7f003f" id="svg_4"/>
    <path stroke="null" d="m446.08469,273.62951c-2.18522,0.58811 -5.58445,2.94057 -7.64826,5.1754l-3.76343,4.23441l0,18.11389c0,10.46841 0.4856,18.23151 1.09261,18.23151c0.60701,0 1.33541,-8.11596 1.57821,-18.34913l0.3642,-18.34913l4.00623,-3.41106c3.15643,-2.70532 5.09884,-3.41106 9.46928,-3.41106c4.73464,0 6.19145,0.58811 9.71208,3.99917l4.12763,3.99917l0,17.76102c0,11.05653 0.4856,17.76102 1.21401,17.76102c0.72841,0 1.21401,-6.70449 1.21401,-17.76102l0,-17.76102l4.12763,-3.99917c3.52063,-3.41106 4.97744,-3.99917 9.83348,-3.99917c4.73464,0 6.31285,0.58811 9.10508,3.52868c4.24904,4.35204 4.85604,7.64547 4.85604,25.40649c0,8.93932 0.4856,14.58521 1.21401,14.58521c1.94242,0 1.57821,-32.2286 -0.4856,-37.05113c-4.24904,-9.76268 -18.33155,-12.23275 -26.70822,-4.70491l-3.39923,3.05819l-4.12763,-3.6463c-2.30662,-1.88196 -4.85604,-3.52868 -5.70585,-3.52868c-0.84981,0 -2.54942,-0.23525 -3.88483,-0.47049c-1.33541,-0.35287 -4.12763,0 -6.19145,0.58811z" fill="#7f003f" id="svg_5"/>
    <path stroke="null" d="m134.8125,274.1c0,2.23483 23.4304,45.40234 24.1588,44.57898c0.60701,-0.58811 6.19145,-10.93891 12.5043,-23.17166c7.28406,-13.76185 10.92609,-21.99543 9.83348,-21.99543c-0.84981,0 -6.07005,8.93932 -11.7759,20.58396c-5.70585,11.29177 -10.56189,20.58396 -10.92609,20.58396c-0.3642,0 -5.22024,-9.29219 -10.92609,-20.58396c-5.58445,-11.29177 -10.80469,-20.58396 -11.5331,-20.58396c-0.72841,0 -1.33541,0.23525 -1.33541,0.58811z" fill="#7f003f" id="svg_6"/>
    <path stroke="null" d="m266.5326,275.39384c-9.59068,4.82253 -14.44672,12.93849 -13.71831,23.05404c1.33541,17.6434 20.51677,27.28845 36.5417,18.23151c3.15643,-1.76434 5.46305,-3.76392 5.09884,-4.35204c-0.3642,-0.58811 -2.91362,0.35287 -5.70585,2.11721c-4.00623,2.47008 -6.43425,3.17581 -11.8973,3.17581c-8.98367,0 -15.53933,-3.99917 -19.42416,-11.76226c-9.34788,-18.58438 11.5331,-37.28638 30.22885,-27.05321c5.94865,3.41106 8.37667,3.76392 6.07005,1.0586c-4.97744,-5.88113 -19.66696,-8.23358 -27.19383,-4.46966z" fill="#7f003f" id="svg_7"/>
    <path stroke="null" d="m307.20194,286.0975c0,15.99668 1.33541,20.81921 7.76966,26.93558c7.76966,7.64547 19.05996,9.40981 28.65064,4.58728c4.85604,-2.47008 10.56189,-9.29219 12.0187,-14.34996c1.69961,-5.76351 1.69961,-29.75853 0.1214,-29.75853c-0.72841,0 -1.21401,4.82253 -1.21401,11.99751c0,15.0557 -1.45681,20.23109 -7.16266,25.75936c-7.76966,7.52785 -18.33155,8.70408 -26.82962,3.05819c-8.74087,-5.64589 -10.80469,-11.52702 -10.92609,-29.40566c0,-6.82211 -0.4856,-11.4094 -1.21401,-11.4094c-0.72841,0 -1.21401,4.94015 -1.21401,12.58562z" fill="#7f003f" id="svg_8"/>
    <path stroke="null" d="m371.78728,289.74381c0.3642,15.87906 0.4856,16.46717 3.88483,20.70158c9.10508,11.52702 24.523,13.29136 35.5705,3.88155c7.16266,-6.11638 8.86227,-11.05653 8.86227,-27.05321c0,-8.35121 -0.4856,-13.76185 -1.21401,-13.76185c-0.72841,0 -1.21401,5.05777 -1.21401,12.58562c0,7.05736 -0.60701,14.58521 -1.21401,16.82004c-2.18522,7.52785 -13.11131,15.29094 -21.48798,15.29094c-5.46305,-0.11762 -13.11131,-4.11679 -16.87474,-8.93932c-3.39923,-4.23441 -3.52063,-4.82253 -3.88483,-20.11347c-0.2428,-9.40981 -0.97121,-15.64381 -1.69961,-15.64381c-0.72841,0 -0.97121,5.99875 -0.72841,16.23192z" fill="#7f003f" id="svg_9"/>
   </g>
   <g stroke="null" id="svg_31">
    <path stroke="null" d="m415.24884,349.26086c0,8.46883 0.1214,8.70408 3.27783,9.29219c7.52686,1.41147 12.0187,-3.76392 8.25527,-9.29219c-1.57821,-2.47008 -2.79222,-2.94057 -5.58445,-2.5877c-3.15643,0.47049 -3.52063,0.23525 -3.52063,-2.82294c0,-1.76434 -0.4856,-3.29343 -1.21401,-3.29343c-0.72841,0 -1.21401,3.6463 -1.21401,8.70408zm10.31909,1.99958c1.69961,4.94015 -5.46305,7.76309 -7.40546,2.82294c-1.21401,-2.94057 0.4856,-5.29302 3.64203,-5.29302c1.94242,0 3.27783,0.82336 3.76343,2.47008z" fill="#000000" id="svg_10"/>
    <path stroke="null" d="m431.03097,349.37848c0,5.05777 0.4856,8.8217 1.21401,8.8217c0.72841,0 1.21401,-3.76392 1.21401,-8.8217c0,-5.05777 -0.4856,-8.8217 -1.21401,-8.8217c-0.72841,0 -1.21401,3.76392 -1.21401,8.8217z" fill="#000000" id="svg_11"/>
    <path stroke="null" d="m173.90363,343.14448c-0.84981,0.82336 -1.45681,2.23483 -1.45681,3.17581c0,1.29385 0.72841,0.94098 2.42802,-1.0586c2.06382,-2.70532 2.54942,-2.82294 4.24904,-1.0586c1.69961,1.64672 1.45681,2.35245 -2.42802,7.52785c-2.30662,3.29343 -4.24904,6.234 -4.24904,6.70449c0,0.58811 2.18522,0.94098 4.85604,0.94098c2.67082,0 4.85604,-0.58811 4.85604,-1.17623c0,-0.70574 -1.33541,-1.17623 -3.03503,-1.17623c-1.69961,0 -3.03503,-0.35287 -3.03503,-0.70574c0,-0.35287 1.33541,-2.23483 3.03503,-4.23441c4.37044,-5.05777 3.52063,-10.35079 -1.82102,-10.35079c-1.09261,0 -2.54942,0.58811 -3.39923,1.41147z" fill="#000000" id="svg_12"/>
    <path stroke="null" d="m187.86474,343.85022c-2.54942,2.70532 -2.67082,4.58728 -0.2428,2.5877c1.57821,-1.29385 1.82102,-0.58811 1.82102,5.1754c0,3.6463 0.60701,6.58687 1.21401,6.58687c0.72841,0 1.21401,-3.52868 1.21401,-8.23358c0,-8.58645 -0.72841,-9.64506 -4.00623,-6.11638z" fill="#000000" id="svg_13"/>
    <path stroke="null" d="m207.65311,349.37848c0,5.99875 0.4856,7.76309 2.18522,8.58645c2.30662,1.17623 5.09884,0.58811 5.09884,-1.17623c0,-0.58811 -1.09261,-0.70574 -2.42802,-0.35287c-2.06382,0.58811 -2.42802,0.23525 -2.42802,-3.05819c0,-2.23483 0.84981,-4.35204 2.18522,-5.29302c1.94242,-1.52909 1.94242,-1.52909 0,-1.64672c-1.33541,0 -2.18522,-0.94098 -2.18522,-2.35245c0,-1.29385 -0.4856,-2.35245 -1.21401,-2.35245c-0.72841,0 -1.21401,3.29343 -1.21401,7.64547z" fill="#000000" id="svg_14"/>
    <path stroke="null" d="m271.99564,348.67275c0,7.41023 2.06382,11.17415 5.46305,9.99792c2.54942,-0.94098 2.30662,-2.5877 -0.2428,-2.35245c-1.57821,0.11762 -2.30662,-0.94098 -2.54942,-3.76392c-0.2428,-2.82294 0.1214,-3.76392 1.45681,-3.76392c1.09261,0 1.94242,-0.58811 1.94242,-1.17623c0,-0.70574 -0.84981,-1.17623 -1.82102,-1.17623c-0.97121,0 -1.82102,-1.0586 -1.82102,-2.35245c0,-1.29385 -0.4856,-2.35245 -1.21401,-2.35245c-0.72841,0 -1.21401,3.05819 -1.21401,6.93974z" fill="#000000" id="svg_15"/>
    <path stroke="null" d="m195.51301,348.20226c-2.06382,2.35245 0.3642,5.29302 4.37044,5.29302c4.97744,0 3.52063,3.29343 -1.57821,3.76392c-3.76343,0.35287 -4.12763,0.70574 -2.30662,1.41147c3.27783,1.52909 8.61947,-0.58811 8.61947,-3.41106c0,-1.64672 -1.21401,-2.70532 -3.88483,-3.52868c-4.73464,-1.29385 -5.22024,-2.94057 -0.97121,-2.94057c1.69961,0 3.03503,-0.58811 3.03503,-1.17623c0,-1.88196 -5.58445,-1.41147 -7.28406,0.58811z" fill="#000000" id="svg_16"/>
    <path stroke="null" d="m229.26249,347.73177c-5.82725,3.17581 0.3642,13.5266 6.19145,10.46841c3.52063,-1.76434 3.15643,-2.47008 -0.97121,-1.64672c-2.79222,0.58811 -3.88483,0.23525 -4.97744,-1.88196c-1.94242,-3.52868 0.4856,-6.35162 5.09884,-5.41064c3.64203,0.70574 4.73464,-0.94098 1.45681,-2.11721c-2.67082,-0.94098 -4.37044,-0.82336 -6.79846,0.58811z" fill="#000000" id="svg_17"/>
    <path stroke="null" d="m242.2524,349.26086c-1.45681,2.11721 -1.57821,3.52868 -0.72841,5.88113c0.72841,1.64672 1.82102,3.05819 2.42802,3.05819c0.60701,0 1.82102,0.23525 2.79222,0.58811c0.84981,0.35287 2.67082,-0.23525 4.00623,-1.17623c2.30662,-1.76434 2.30662,-1.88196 -1.33541,-1.17623c-2.54942,0.47049 -4.24904,0.11762 -5.34164,-1.17623c-1.33541,-1.52909 -0.84981,-1.76434 4.12763,-1.76434c6.07005,0 7.28406,-1.64672 3.39923,-5.05777c-3.15643,-2.82294 -7.16266,-2.47008 -9.34788,0.82336zm8.49807,0.70574c0.4856,0.70574 -0.84981,1.17623 -2.91362,1.17623c-2.06382,0 -3.76343,-0.58811 -3.76343,-1.17623c0,-0.70574 1.33541,-1.17623 2.91362,-1.17623c1.69961,0 3.39923,0.47049 3.76343,1.17623z" fill="#000000" id="svg_18"/>
    <path stroke="null" d="m256.82052,347.49652c-1.21401,1.0586 -0.60701,10.70366 0.60701,10.70366c0.72841,0 1.21401,-1.41147 1.21401,-3.29343c0,-4.46966 1.57821,-6.35162 4.97744,-5.88113c2.42802,0.23525 3.03503,1.17623 3.27783,4.70491c0.4856,5.52826 2.67082,5.88113 2.67082,0.58811c0,-5.05777 -3.27783,-7.99834 -8.37667,-7.64547c-2.18522,0.11762 -4.12763,0.47049 -4.37044,0.82336z" fill="#000000" id="svg_19"/>
    <path stroke="null" d="m282.43613,347.96701c-2.54942,5.29302 3.03503,11.76226 9.34788,10.58604c3.03503,-0.58811 3.27783,-1.0586 3.27783,-6.46925c0,-3.52868 -0.4856,-5.52826 -1.21401,-5.05777c-0.60701,0.35287 -1.21401,2.47008 -1.21401,4.70491c0,2.94057 -0.60701,4.11679 -2.42802,4.70491c-3.52063,1.0586 -5.82725,-1.17623 -6.31285,-6.234c-0.3642,-3.29343 -0.72841,-3.88155 -1.45681,-2.23483z" fill="#000000" id="svg_20"/>
    <path stroke="null" d="m297.97546,347.49652c-1.09261,1.0586 -0.4856,10.70366 0.72841,10.70366c0.72841,0 1.21401,-1.29385 1.21401,-2.82294c0,-4.11679 1.21401,-6.58687 3.15643,-6.58687c0.97121,0 1.69961,-0.47049 1.69961,-1.17623c0,-1.0586 -5.58445,-1.17623 -6.79846,-0.11762z" fill="#000000" id="svg_21"/>
    <path stroke="null" d="m309.62996,347.73177c0,0.94098 1.09261,3.76392 2.30662,6.46925c2.42802,5.05777 1.69961,8.70408 -1.69961,8.70408c-0.97121,0 -1.82102,0.47049 -1.82102,1.17623c0,1.88196 3.15643,1.29385 5.22024,-0.94098c1.69961,-1.76434 8.13387,-14.58521 8.13387,-16.1143c0,-0.35287 -0.4856,-0.58811 -0.97121,-0.58811c-0.60701,0 -2.06382,2.23483 -3.15643,4.94015l-2.18522,5.05777l-2.06382,-4.35204c-2.54942,-5.1754 -3.76343,-6.70449 -3.76343,-4.35204z" fill="#000000" id="svg_22"/>
    <path stroke="null" d="m335.85258,348.31988c-4.85604,4.70491 -0.1214,11.4094 7.28406,10.23317c3.39923,-0.47049 3.64203,-0.94098 3.27783,-4.70491c-0.1214,-2.23483 -0.97121,-4.82253 -1.69961,-5.76351c-1.82102,-2.23483 -6.55565,-2.11721 -8.86227,0.23525zm8.25527,3.05819c1.82102,2.82294 -1.57821,6.234 -5.22024,5.05777c-2.54942,-0.70574 -3.52063,-5.05777 -1.69961,-6.93974c1.45681,-1.41147 5.46305,-0.23525 6.91986,1.88196z" fill="#000000" id="svg_23"/>
    <path stroke="null" d="m350.1779,348.20226c-1.21401,2.82294 0.3642,5.05777 3.76343,5.52826c4.37044,0.47049 3.88483,2.5877 -0.84981,3.41106c-3.15643,0.47049 -3.52063,0.82336 -1.82102,1.52909c3.76343,1.64672 8.13387,-0.23525 8.13387,-3.41106c0,-2.35245 -0.72841,-3.17581 -3.64203,-3.76392c-4.37044,-0.82336 -4.85604,-2.70532 -0.60701,-2.70532c1.69961,0 3.03503,-0.58811 3.03503,-1.17623c0,-1.88196 -7.28406,-1.41147 -8.01247,0.58811z" fill="#000000" id="svg_24"/>
    <path stroke="null" d="m363.53201,348.20226c-1.21401,2.82294 0.3642,5.05777 3.76343,5.52826c4.49184,0.47049 4.37044,2.5877 -0.2428,3.05819c-4.97744,0.47049 -5.34164,2.5877 -0.4856,2.5877c6.79846,0 8.13387,-7.05736 1.45681,-7.99834c-3.15643,-0.47049 -3.39923,-2.5877 -0.2428,-2.5877c1.33541,0 2.79222,-0.58811 3.15643,-1.17623c0.4856,-0.70574 -0.84981,-1.17623 -3.03503,-1.17623c-2.18522,0 -4.00623,0.70574 -4.37044,1.76434z" fill="#000000" id="svg_25"/>
    <path stroke="null" d="m378.58573,347.73177c-5.82725,3.17581 0.3642,13.5266 6.19145,10.46841c3.52063,-1.76434 3.15643,-2.11721 -1.21401,-1.88196c-2.18522,0 -4.12763,-0.58811 -4.37044,-1.41147c-0.3642,-0.94098 0.97121,-1.41147 4.37044,-1.41147c5.46305,0 6.55565,-1.88196 3.03503,-5.1754c-2.18522,-2.11721 -4.97744,-2.35245 -8.01247,-0.58811zm6.91986,2.23483c0.4856,0.70574 -0.84981,1.17623 -3.03503,1.17623c-2.18522,0 -3.52063,-0.47049 -3.03503,-1.17623c0.3642,-0.70574 1.82102,-1.17623 3.03503,-1.17623c1.21401,0 2.67082,0.47049 3.03503,1.17623z" fill="#000000" id="svg_26"/>
    <path stroke="null" d="m392.30405,352.78954c0.1214,3.29343 0.3642,4.94015 0.72841,3.6463c0.2428,-1.29385 0.72841,-3.52868 1.09261,-5.05777c0.3642,-1.99958 1.21401,-2.5877 3.27783,-2.35245c2.18522,0.23525 2.79222,1.29385 3.03503,4.70491c0.2428,2.47008 0.84981,4.46966 1.45681,4.46966c0.60701,0 1.21401,-1.99958 1.45681,-4.46966c0.3642,-3.76392 0.72841,-4.35204 3.39923,-4.35204c2.67082,0 3.03503,0.58811 3.39923,4.35204c0.4856,5.52826 2.67082,5.88113 2.67082,0.47049c0,-5.64589 -2.54942,-7.17498 -12.3829,-7.2926l-8.25527,0l0.1214,5.88113z" fill="#000000" id="svg_27"/>
    <path stroke="null" d="m437.70802,348.79037c-2.54942,2.70532 -1.69961,7.52785 1.69961,9.29219c2.42802,1.29385 7.40546,0.47049 7.40546,-1.17623c0,-0.58811 -1.21401,-0.82336 -2.79222,-0.47049c-1.82102,0.47049 -3.39923,0.11762 -4.37044,-1.0586c-1.45681,-1.64672 -0.97121,-1.88196 4.00623,-1.88196c6.07005,0 6.55565,-0.47049 3.64203,-4.46966c-2.30662,-3.17581 -6.67706,-3.29343 -9.59068,-0.23525zm8.49807,1.17623c0.4856,0.70574 -0.97121,1.17623 -3.64203,1.17623c-2.67082,0 -4.12763,-0.47049 -3.64203,-1.17623c0.3642,-0.70574 2.06382,-1.17623 3.64203,-1.17623c1.57821,0 3.27783,0.47049 3.64203,1.17623z" fill="#000000" id="svg_28"/>
    <path stroke="null" d="m451.66914,352.5543c0,3.05819 0.60701,5.64589 1.21401,5.64589c0.72841,0 1.21401,-1.88196 1.21401,-4.23441c0,-3.17581 0.60701,-4.35204 2.42802,-4.82253c3.64203,-0.94098 2.91362,-2.5877 -1.21401,-2.47008c-3.52063,0.11762 -3.64203,0.35287 -3.64203,5.88113z" fill="#000000" id="svg_29"/>
   </g>
  </g>
 </g>
</svg>
